<?xml version="1.0" encoding="UTF-8" standalone="no"?>
<svg
   xmlns:dc="http://purl.org/dc/elements/1.1/"
   xmlns:cc="http://creativecommons.org/ns#"
   xmlns:rdf="http://www.w3.org/1999/02/22-rdf-syntax-ns#"
   xmlns:svg="http://www.w3.org/2000/svg"
   xmlns="http://www.w3.org/2000/svg"
   xmlns:sodipodi="http://sodipodi.sourceforge.net/DTD/sodipodi-0.dtd"
   xmlns:inkscape="http://www.inkscape.org/namespaces/inkscape"
   width="700pt"
   height="700pt"
   version="1.1"
   viewBox="0 0 700 700"
   id="svg150"
   sodipodi:docname="noun-books-1361492.svg"
   inkscape:version="0.92.5 (2060ec1f9f, 2020-04-08)">
  <metadata
     id="metadata154">
    <rdf:RDF>
      <cc:Work
         rdf:about="">
        <dc:format>image/svg+xml</dc:format>
        <dc:type
           rdf:resource="http://purl.org/dc/dcmitype/StillImage" />
      </cc:Work>
    </rdf:RDF>
  </metadata>
  <sodipodi:namedview
     pagecolor="#ffffff"
     bordercolor="#666666"
     borderopacity="1"
     objecttolerance="10"
     gridtolerance="10"
     guidetolerance="10"
     inkscape:pageopacity="0"
     inkscape:pageshadow="2"
     inkscape:window-width="1920"
     inkscape:window-height="1022"
     id="namedview152"
     showgrid="false"
     inkscape:zoom="0.715188"
     inkscape:cx="492.78049"
     inkscape:cy="495.11628"
     inkscape:window-x="0"
     inkscape:window-y="0"
     inkscape:window-maximized="1"
     inkscape:current-layer="svg150" />
  <defs
     id="defs68">
    <symbol
       id="v"
       overflow="visible">
      <path
         d="m19.547-1.1719c-1.0117 0.52344-2.0625 0.91406-3.1562 1.1719-1.0938 0.26953-2.2344 0.40625-3.4219 0.40625-3.543 0-6.3516-0.98828-8.4219-2.9688-2.0625-1.9766-3.0938-4.6602-3.0938-8.0469 0-3.4062 1.0312-6.0977 3.0938-8.0781 2.0703-1.9766 4.8789-2.9688 8.4219-2.9688 1.1875 0 2.3281 0.13672 3.4219 0.40625 1.0938 0.26172 2.1445 0.65625 3.1562 1.1875v4.3906c-1.0234-0.6875-2.0273-1.1914-3.0156-1.5156-0.98047-0.32031-2.0156-0.48438-3.1094-0.48438-1.9609 0-3.5 0.625-4.625 1.875-1.1172 1.25-1.6719 2.9805-1.6719 5.1875 0 2.1875 0.55469 3.9141 1.6719 5.1719 1.125 1.25 2.6641 1.875 4.625 1.875 1.0938 0 2.1289-0.16016 3.1094-0.48438 0.98828-0.32031 1.9922-0.82812 3.0156-1.5156z"
         id="path2" />
    </symbol>
    <symbol
       id="b"
       overflow="visible">
      <path
         d="m14.297-11.609c-0.44922-0.20703-0.89062-0.35938-1.3281-0.45312-0.4375-0.10156-0.88281-0.15625-1.3281-0.15625-1.3125 0-2.3242 0.42188-3.0312 1.2656-0.71094 0.83594-1.0625 2.0391-1.0625 3.6094v7.3438h-5.0938v-15.953h5.0938v2.625c0.65625-1.0508 1.4062-1.8164 2.25-2.2969 0.85156-0.47656 1.875-0.71875 3.0625-0.71875 0.17578 0 0.36328 0.011719 0.5625 0.03125 0.19531 0.011719 0.48438 0.042969 0.85938 0.09375z"
         id="path5" />
    </symbol>
    <symbol
       id="a"
       overflow="visible">
      <path
         d="m18.375-8.0156v1.4531h-11.922c0.125 1.1992 0.55469 2.0938 1.2969 2.6875 0.73828 0.59375 1.7734 0.89062 3.1094 0.89062 1.0703 0 2.1719-0.15625 3.2969-0.46875 1.125-0.32031 2.2812-0.80469 3.4688-1.4531v3.9375c-1.2109 0.46094-2.418 0.80469-3.625 1.0312-1.2109 0.22656-2.4141 0.34375-3.6094 0.34375-2.8984 0-5.1484-0.72656-6.75-2.1875-1.5938-1.4688-2.3906-3.5312-2.3906-6.1875 0-2.5938 0.78516-4.6328 2.3594-6.125 1.5703-1.5 3.7344-2.25 6.4844-2.25 2.5078 0 4.5156 0.75781 6.0156 2.2656 1.5078 1.5117 2.2656 3.5312 2.2656 6.0625zm-5.2344-1.7031c0-0.96875-0.28906-1.75-0.85938-2.3438-0.5625-0.59375-1.2969-0.89062-2.2031-0.89062-0.99219 0-1.7969 0.28125-2.4219 0.84375-0.61719 0.55469-0.99609 1.3516-1.1406 2.3906z"
         id="path8" />
    </symbol>
    <symbol
       id="e"
       overflow="visible">
      <path
         d="m9.5938-7.1719c-1.0625 0-1.8672 0.18359-2.4062 0.54688-0.53125 0.35547-0.79688 0.88281-0.79688 1.5781 0 0.64844 0.21094 1.1523 0.64062 1.5156 0.4375 0.36719 1.0391 0.54688 1.8125 0.54688 0.95703 0 1.7656-0.34375 2.4219-1.0312s0.98438-1.5469 0.98438-2.5781v-0.57812zm7.7969-1.9375v9.1094h-5.1406v-2.3594c-0.6875 0.96875-1.4609 1.6719-2.3125 2.1094-0.85547 0.4375-1.8906 0.65625-3.1094 0.65625-1.6562 0-3-0.47656-4.0312-1.4375-1.0312-0.96875-1.5469-2.2188-1.5469-3.75 0-1.875 0.64062-3.25 1.9219-4.125 1.2891-0.875 3.3164-1.3125 6.0781-1.3125h3v-0.39062c0-0.8125-0.32031-1.4062-0.95312-1.7812-0.63672-0.375-1.6328-0.5625-2.9844-0.5625-1.0859 0-2.1016 0.10938-3.0469 0.32812-0.9375 0.21875-1.8086 0.54688-2.6094 0.98438v-3.8906c1.082-0.25781 2.1758-0.45703 3.2812-0.59375 1.1016-0.14453 2.207-0.21875 3.3125-0.21875 2.875 0 4.9453 0.57031 6.2188 1.7031 1.2812 1.1367 1.9219 2.9805 1.9219 5.5312z"
         id="path11" />
    </symbol>
    <symbol
       id="d"
       overflow="visible">
      <path
         d="m8.0156-20.484v4.5312h5.2656v3.6406h-5.2656v6.7656c0 0.74219 0.14453 1.2461 0.4375 1.5156 0.30078 0.26172 0.89062 0.39062 1.7656 0.39062h2.6094v3.6406h-4.3594c-2.0234 0-3.4531-0.41406-4.2969-1.25-0.83594-0.84375-1.25-2.2734-1.25-4.2969v-6.7656h-2.5312v-3.6406h2.5312v-4.5312z"
         id="path14" />
    </symbol>
    <symbol
       id="j"
       overflow="visible">
      <path
         d="m13.297-13.625v-8.5312h5.1406v22.156h-5.1406v-2.3125c-0.69922 0.94922-1.4688 1.6406-2.3125 2.0781-0.84375 0.42578-1.8242 0.64062-2.9375 0.64062-1.9688 0-3.5859-0.77344-4.8438-2.3281-1.2617-1.5625-1.8906-3.5781-1.8906-6.0469 0-2.457 0.62891-4.4688 1.8906-6.0312 1.2578-1.5625 2.875-2.3438 4.8438-2.3438 1.1016 0 2.0781 0.22656 2.9219 0.67188 0.85156 0.4375 1.6289 1.1211 2.3281 2.0469zm-3.3594 10.328c1.0938 0 1.9258-0.39453 2.5-1.1875 0.57031-0.80078 0.85938-1.9609 0.85938-3.4844 0-1.5078-0.28906-2.6641-0.85938-3.4688-0.57422-0.80078-1.4062-1.2031-2.5-1.2031-1.0859 0-1.9141 0.40234-2.4844 1.2031-0.57422 0.80469-0.85938 1.9609-0.85938 3.4688 0 1.5234 0.28516 2.6836 0.85938 3.4844 0.57031 0.79297 1.3984 1.1875 2.4844 1.1875z"
         id="path17" />
    </symbol>
    <symbol
       id="i"
       overflow="visible">
      <path
         d="m10.938-3.2969c1.0938 0 1.9258-0.39453 2.5-1.1875 0.57031-0.80078 0.85938-1.9609 0.85938-3.4844 0-1.5078-0.28906-2.6641-0.85938-3.4688-0.57422-0.80078-1.4062-1.2031-2.5-1.2031s-1.9336 0.40234-2.5156 1.2031c-0.58594 0.80469-0.875 1.9609-0.875 3.4688 0 1.5117 0.28906 2.668 0.875 3.4688 0.58203 0.80469 1.4219 1.2031 2.5156 1.2031zm-3.3906-10.328c0.70703-0.92578 1.4883-1.6094 2.3438-2.0469 0.85156-0.44531 1.832-0.67188 2.9375-0.67188 1.9688 0 3.582 0.78125 4.8438 2.3438 1.2695 1.5625 1.9062 3.5742 1.9062 6.0312 0 2.4688-0.63672 4.4844-1.9062 6.0469-1.2617 1.5547-2.875 2.3281-4.8438 2.3281-1.1055 0-2.0859-0.21875-2.9375-0.65625-0.85547-0.4375-1.6367-1.125-2.3438-2.0625v2.3125h-5.0938v-22.156h5.0938z"
         id="path20" />
    </symbol>
    <symbol
       id="h"
       overflow="visible">
      <path
         d="m0.35938-15.953h5.0938l4.2969 10.828 3.6406-10.828h5.0938l-6.7031 17.469c-0.67969 1.7695-1.4648 3.0078-2.3594 3.7188-0.89844 0.70703-2.0781 1.0625-3.5469 1.0625h-2.9531v-3.3438h1.5938c0.86328 0 1.4922-0.14062 1.8906-0.42188 0.39453-0.27344 0.70312-0.76562 0.92188-1.4844l0.14062-0.4375z"
         id="path23" />
    </symbol>
    <symbol
       id="f"
       overflow="visible">
      <path
         d="m12.953-22.156v3.3438h-2.8281c-0.71875 0-1.2266 0.13281-1.5156 0.39062-0.28125 0.26172-0.42188 0.71484-0.42188 1.3594v1.1094h4.3594v3.6406h-4.3594v12.312h-5.0938v-12.312h-2.5312v-3.6406h2.5312v-1.1094c0-1.7383 0.48438-3.0195 1.4531-3.8438 0.96875-0.83203 2.4688-1.25 4.5-1.25z"
         id="path26" />
    </symbol>
    <symbol
       id="u"
       overflow="visible">
      <path
         d="m2.4531-15.953h5.0938v15.953h-5.0938zm0-6.2031h5.0938v4.1562h-5.0938z"
         id="path29" />
    </symbol>
    <symbol
       id="g"
       overflow="visible">
      <path
         d="m14.906-15.453v3.875c-1.0859-0.45703-2.1367-0.80078-3.1562-1.0312-1.0117-0.22656-1.9688-0.34375-2.875-0.34375-0.96875 0-1.6875 0.125-2.1562 0.375-0.46875 0.24219-0.70312 0.60938-0.70312 1.1094 0 0.40625 0.17578 0.71875 0.53125 0.9375 0.35156 0.21875 0.99219 0.38281 1.9219 0.48438l0.89062 0.14062c2.6133 0.32422 4.3672 0.86719 5.2656 1.625 0.90625 0.76172 1.3594 1.9531 1.3594 3.5781 0 1.6992-0.63281 2.9766-1.8906 3.8281-1.25 0.85547-3.1211 1.2812-5.6094 1.2812-1.0547 0-2.1406-0.085938-3.2656-0.25-1.125-0.15625-2.2812-0.39844-3.4688-0.73438v-3.875c1.0195 0.49219 2.0625 0.85938 3.125 1.1094 1.0703 0.24219 2.1602 0.35938 3.2656 0.35938 0.98828 0 1.7344-0.13281 2.2344-0.40625 0.50781-0.26953 0.76562-0.67578 0.76562-1.2188 0-0.45703-0.17969-0.79688-0.53125-1.0156-0.34375-0.22656-1.0312-0.40625-2.0625-0.53125l-0.89062-0.10938c-2.2734-0.28125-3.8672-0.80469-4.7812-1.5781-0.90625-0.76953-1.3594-1.9414-1.3594-3.5156 0-1.6875 0.57812-2.9375 1.7344-3.75 1.1562-0.82031 2.9297-1.2344 5.3281-1.2344 0.9375 0 1.9219 0.074219 2.9531 0.21875 1.0391 0.14844 2.1641 0.37109 3.375 0.67188z"
         id="path32" />
    </symbol>
    <symbol
       id="t"
       overflow="visible">
      <path
         d="m2.4531-22.156h5.0938v22.156h-5.0938z"
         id="path35" />
    </symbol>
    <symbol
       id="c"
       overflow="visible">
      <path
         d="m10.047-12.688c-1.1367 0-2 0.40625-2.5938 1.2188s-0.89062 1.9805-0.89062 3.5c0 1.5312 0.29688 2.7031 0.89062 3.5156s1.457 1.2188 2.5938 1.2188c1.1016 0 1.9453-0.40625 2.5312-1.2188 0.59375-0.8125 0.89062-1.9844 0.89062-3.5156 0-1.5195-0.29688-2.6875-0.89062-3.5-0.58594-0.8125-1.4297-1.2188-2.5312-1.2188zm0-3.6562c2.7383 0 4.8789 0.74609 6.4219 2.2344 1.5391 1.4805 2.3125 3.5273 2.3125 6.1406 0 2.625-0.77344 4.6797-2.3125 6.1562-1.543 1.4805-3.6836 2.2188-6.4219 2.2188-2.7617 0-4.918-0.73828-6.4688-2.2188-1.5547-1.4766-2.3281-3.5312-2.3281-6.1562 0-2.6133 0.77344-4.6602 2.3281-6.1406 1.5508-1.4883 3.707-2.2344 6.4688-2.2344z"
         id="path38" />
    </symbol>
    <symbol
       id="s"
       overflow="visible">
      <path
         d="m0.4375-15.953h5.1094l3.9688 11.031 3.9531-11.031h5.125l-6.2812 15.953h-5.6094z"
         id="path41" />
    </symbol>
    <symbol
       id="r"
       overflow="visible">
      <path
         d="m17.234-13.297c0.64453-0.98828 1.4102-1.7422 2.2969-2.2656 0.89453-0.51953 1.875-0.78125 2.9375-0.78125 1.832 0 3.2266 0.57031 4.1875 1.7031 0.95703 1.125 1.4375 2.7656 1.4375 4.9219v9.7188h-5.125v-8.3125-0.39062c0.007812-0.13281 0.015625-0.32031 0.015625-0.5625 0-1.1328-0.16797-1.9531-0.5-2.4531-0.32422-0.50781-0.85938-0.76562-1.6094-0.76562-0.96875 0-1.7188 0.40234-2.25 1.2031-0.52344 0.79297-0.79297 1.9453-0.8125 3.4531v7.8281h-5.125v-8.3125c0-1.7695-0.15234-2.9062-0.45312-3.4062-0.30469-0.50781-0.84375-0.76562-1.625-0.76562-0.98047 0-1.7344 0.40234-2.2656 1.2031-0.53125 0.80469-0.79688 1.9492-0.79688 3.4375v7.8438h-5.125v-15.953h5.125v2.3281c0.625-0.89453 1.3438-1.5703 2.1562-2.0312 0.8125-0.45703 1.707-0.6875 2.6875-0.6875 1.1016 0 2.0781 0.26562 2.9219 0.79688s1.4844 1.2812 1.9219 2.25z"
         id="path44" />
    </symbol>
    <symbol
       id="q"
       overflow="visible">
      <path
         d="m18.484-9.7188v9.7188h-5.125v-7.4062c0-1.3945-0.03125-2.3516-0.09375-2.875-0.0625-0.51953-0.16797-0.90625-0.3125-1.1562-0.19922-0.33203-0.46875-0.58594-0.8125-0.76562-0.34375-0.1875-0.73438-0.28125-1.1719-0.28125-1.0625 0-1.9023 0.41406-2.5156 1.2344-0.60547 0.8125-0.90625 1.9492-0.90625 3.4062v7.8438h-5.0938v-22.156h5.0938v8.5312c0.76953-0.92578 1.5859-1.6094 2.4531-2.0469 0.86328-0.44531 1.8164-0.67188 2.8594-0.67188 1.8438 0 3.2383 0.57031 4.1875 1.7031 0.95703 1.125 1.4375 2.7656 1.4375 4.9219z"
         id="path47" />
    </symbol>
    <symbol
       id="p"
       overflow="visible">
      <path
         d="m2.6719-21.266h6.125l7.7344 14.578v-14.578h5.2031v21.266h-6.125l-7.7344-14.594v14.594h-5.2031z"
         id="path50" />
    </symbol>
    <symbol
       id="o"
       overflow="visible">
      <path
         d="m2.2812-6.2031v-9.75h5.125v1.5938c0 0.86719-0.007812 1.9531-0.015625 3.2656-0.011719 1.3047-0.015625 2.1719-0.015625 2.6094 0 1.2812 0.03125 2.2031 0.09375 2.7656 0.070312 0.5625 0.1875 0.97656 0.34375 1.2344 0.21875 0.33594 0.49219 0.58984 0.82812 0.76562 0.33203 0.17969 0.71875 0.26562 1.1562 0.26562 1.0625 0 1.8945-0.40625 2.5-1.2188 0.61328-0.8125 0.92188-1.9453 0.92188-3.4062v-7.875h5.0938v15.953h-5.0938v-2.3125c-0.77344 0.9375-1.5898 1.625-2.4531 2.0625-0.85547 0.4375-1.7969 0.65625-2.8281 0.65625-1.8438 0-3.25-0.5625-4.2188-1.6875-0.96094-1.1328-1.4375-2.7734-1.4375-4.9219z"
         id="path53" />
    </symbol>
    <symbol
       id="n"
       overflow="visible">
      <path
         d="m18.484-9.7188v9.7188h-5.125v-7.4375c0-1.375-0.03125-2.3203-0.09375-2.8438-0.0625-0.51953-0.16797-0.90625-0.3125-1.1562-0.19922-0.33203-0.46875-0.58594-0.8125-0.76562-0.34375-0.1875-0.73438-0.28125-1.1719-0.28125-1.0625 0-1.9023 0.41406-2.5156 1.2344-0.60547 0.8125-0.90625 1.9492-0.90625 3.4062v7.8438h-5.0938v-15.953h5.0938v2.3281c0.76953-0.92578 1.5859-1.6094 2.4531-2.0469 0.86328-0.44531 1.8164-0.67188 2.8594-0.67188 1.8438 0 3.2383 0.57031 4.1875 1.7031 0.95703 1.125 1.4375 2.7656 1.4375 4.9219z"
         id="path56" />
    </symbol>
    <symbol
       id="m"
       overflow="visible">
      <path
         d="m2.6719-21.266h9.1094c2.707 0 4.7852 0.60547 6.2344 1.8125 1.4453 1.1992 2.1719 2.9062 2.1719 5.125 0 2.2305-0.72656 3.9492-2.1719 5.1562-1.4492 1.1992-3.5273 1.7969-6.2344 1.7969h-3.625v7.375h-5.4844zm5.4844 3.9688v5.9375h3.0469c1.0625 0 1.8789-0.25391 2.4531-0.76562 0.58203-0.51953 0.875-1.2539 0.875-2.2031 0-0.94531-0.29297-1.6758-0.875-2.1875-0.57422-0.51953-1.3906-0.78125-2.4531-0.78125z"
         id="path59" />
    </symbol>
    <symbol
       id="l"
       overflow="visible">
      <path
         d="m2.4531-15.953h5.0938v15.672c0 2.1328-0.51562 3.7656-1.5469 4.8906-1.0234 1.125-2.5078 1.6875-4.4531 1.6875h-2.5156v-3.3438h0.89062c0.96875 0 1.6289-0.21875 1.9844-0.65625 0.36328-0.4375 0.54688-1.2969 0.54688-2.5781zm0-6.2031h5.0938v4.1562h-5.0938z"
         id="path62" />
    </symbol>
    <symbol
       id="k"
       overflow="visible">
      <path
         d="m15.344-15.453v4.1562c-0.69922-0.46875-1.3984-0.81641-2.0938-1.0469-0.69922-0.22656-1.4219-0.34375-2.1719-0.34375-1.4297 0-2.5391 0.41797-3.3281 1.25-0.79297 0.82422-1.1875 1.9805-1.1875 3.4688 0 1.5 0.39453 2.668 1.1875 3.5 0.78906 0.82422 1.8984 1.2344 3.3281 1.2344 0.80078 0 1.5547-0.11719 2.2656-0.35938 0.71875-0.23828 1.3828-0.58594 2-1.0469v4.1719c-0.80469 0.29297-1.6172 0.50781-2.4375 0.65625-0.8125 0.14453-1.6367 0.21875-2.4688 0.21875-2.875 0-5.125-0.73438-6.75-2.2031-1.625-1.4766-2.4375-3.5352-2.4375-6.1719 0-2.625 0.8125-4.6758 2.4375-6.1562 1.625-1.4766 3.875-2.2188 6.75-2.2188 0.83203 0 1.6562 0.078125 2.4688 0.23438 0.8125 0.14844 1.625 0.36719 2.4375 0.65625z"
         id="path65" />
    </symbol>
  </defs>
  <g
     id="g3899"
     transform="matrix(1.4750926,0,0,1.4750926,-166.91371,-69.402799)">
    <path
       d="m 117.52,394.48 c 1.9062,0.73047 4.082,0.0273 5.2148,-1.6875 l 4.5508,-6.918 26.559,15.711 -3.7578,5.4258 c -1.375,1.9844 -0.87891,4.7148 1.1094,6.0859 0.75781,0.52344 1.6289,0.77734 2.4844,0.77734 1.3867,0 2.7539,-0.66016 3.5977,-1.8828 l 71.441,-103.18 v 26.758 c 0,1.8008 1.1094,3.4258 2.7891,4.0781 l 20.418,7.9375 28.891,63.711 c 0.71875,1.582 2.2852,2.5664 3.9844,2.5664 0.17969,0 0.36719,-0.0117 0.54688,-0.0352 l 296.12,-37.172 c 2.3984,-0.30469 4.1016,-2.4922 3.7969,-4.8828 -0.29688,-2.375 -2.4336,-4.043 -4.8125,-3.793 v -14.227 l 0.99219,-0.11719 c 1.6914,-0.19922 3.1133,-1.3633 3.6406,-2.9883 0.53125,-1.6211 0.0703,-3.4023 -1.1797,-4.5625 l -25.918,-24.098 19.773,-8.25 c 0.0117,-0.004 0.0156,-0.0156 0.0352,-0.0234 0.16406,-0.0703 0.27344,-0.20312 0.42578,-0.28516 0.36719,-0.21484 0.73438,-0.43359 1.0391,-0.75392 0.0234,-0.0234 0.0508,-0.0273 0.0742,-0.0586 0.15234,-0.16797 0.21095,-0.375 0.32812,-0.55859 0.17579,-0.26953 0.375,-0.53125 0.48438,-0.82422 0.0977,-0.26172 0.1172,-0.54688 0.16406,-0.82812 0.0469,-0.27344 0.12109,-0.54297 0.10938,-0.82422 -0.004,-0.31641 -0.10938,-0.62891 -0.1875,-0.94531 -0.0508,-0.21094 -0.0391,-0.42188 -0.12109,-0.625 -0.0117,-0.0273 -0.0391,-0.0508 -0.0586,-0.082 -0.12109,-0.27344 -0.32031,-0.48438 -0.48828,-0.73047 -0.16406,-0.23438 -0.29687,-0.48438 -0.51172,-0.6875 -0.0234,-0.0234 -0.0352,-0.0586 -0.0586,-0.082 -5.8555,-5.2344 -8.832,-10.832 -8.8477,-16.641 -0.0234,-10.113 8.7617,-18.172 8.8438,-18.242 0.0742,-0.0625 0.10547,-0.15625 0.16797,-0.23438 0.29297,-0.29297 0.53516,-0.61328 0.72266,-0.96094 0.0859,-0.15625 0.15625,-0.32812 0.22656,-0.48828 0.12109,-0.31641 0.20312,-0.64844 0.24609,-0.98047 0.0273,-0.17969 0.0586,-0.36328 0.0625,-0.54688 0,-0.0859 0.0352,-0.16797 0.0273,-0.25781 -0.0117,-0.30469 -0.10938,-0.58203 -0.17969,-0.87109 -0.0352,-0.12891 -0.0391,-0.26953 -0.082,-0.39844 -0.17578,-0.48438 -0.44141,-0.9375 -0.79297,-1.3516 -0.0234,-0.0234 -0.0234,-0.0586 -0.0469,-0.082 -0.0703,-0.0742 -0.16406,-0.10938 -0.23828,-0.17969 -0.28516,-0.28125 -0.60156,-0.51953 -0.94531,-0.71094 -0.16406,-0.0937 -0.34375,-0.16406 -0.51953,-0.23828 -0.14062,-0.0508 -0.26172,-0.14453 -0.41016,-0.1875 l -53.715,-14.652 31.816,-68.059 c 0.63672,-1.3516 0.53125,-2.9414 -0.26953,-4.207 -0.80078,-1.2656 -2.1914,-2.0234 -3.6914,-2.0234 h -14.477 l -5.1211,-8.2031 c -0.0391,-0.0703 -0.12109,-0.0977 -0.16406,-0.16406 -0.24609,-0.35156 -0.55859,-0.61719 -0.88672,-0.87891 -0.16406,-0.12891 -0.29687,-0.29297 -0.48437,-0.39844 -0.0391,-0.0234 -0.0703,-0.0703 -0.10938,-0.0937 -0.48828,-0.26172 -1.0156,-0.40234 -1.5391,-0.46484 -0.0391,-0.004 -0.0742,-0.0352 -0.11719,-0.0352 -0.24609,-0.0234 -24.32,-2.293 -47.211,-2.293 -24.309,0 -35.082,2.4453 -40.336,5.3242 -3.2266,-2.0703 -9.0469,-3.7344 -19.414,-3.7344 -14.129,0 -34.527,3.0469 -60.555,8.9883 -0.79297,-0.8125 -1.8906,-1.3164 -3.1133,-1.3164 h -5.5938 c -1.4297,0 -2.7656,0.69531 -3.582,1.8672 l -72.953,104.2 -32.91,10.535 58.375,-84.309 1.2383,-1.7852 c 0.78906,-1.1367 0.99219,-2.5898 0.54297,-3.9023 l -9.1602,-26.828 c -0.32031,-0.9375 -0.94922,-1.7383 -1.7852,-2.2734 l -35.305,-22.57 c -0.0156,-0.0117 -0.0352,-0.0234 -0.0508,-0.0352 -0.50781,-0.32031 -1.0625,-0.51953 -1.6172,-0.60547 -0.59375,-0.0976 -1.1953,-0.0703 -1.8008,0.0859 -0.14062,0.0352 -0.28125,0.082 -0.42188,0.13281 h -0.004 c -0.88672,0.33203 -1.6055,0.92578 -2.1016,1.6758 l -127.89,190.13 c -0.36328,0.54297 -0.60156,1.1562 -0.69531,1.8008 l -7.3516,49.742 c -0.33203,2.0625 0.82422,4.0352 2.7383,4.7656 z M 544.5,183.9 l -0.96875,2.0664 c -0.0586,-0.11719 -0.0391,-0.25 -0.10938,-0.36328 l -1.0625,-1.7031 z m -259.05,216.43 -21.863,-48.207 3.5234,1.3711 14.496,32.727 c 0.68359,1.5469 2.1875,2.5195 3.8398,2.5781 l -0.004,11.531 z m -6.7734,-42.34 45.051,17.516 -35.422,4.2188 z m 15.523,45.914 v -16.07 l 46.871,-5.582 30.66,11.918 z m 277.5,-34.824 -181.03,22.723 51.805,-21.613 129.22,-15.383 z m -0.67187,-23.008 -98.996,11.785 77.086,-32.16 z m -2.5234,-37.945 -188.77,78.75 c -15.395,-17.75 -4.918,-34.715 -2.1133,-38.582 l 186.68,-70.852 c -1.6445,3.5703 -2.8984,7.6992 -2.9062,12.301 0,6.5352 2.4062,12.695 7.1133,18.383 z m -6.5508,-39.145 -57.844,21.949 15.645,-33.465 z m -66.961,20.801 -50.289,-1.3633 42.742,0.40234 h 0.0391 0.004 c 0.71875,0 1.375,-0.23438 1.9883,-0.54688 0.13281,-0.0703 0.26953,-0.14062 0.39062,-0.22656 0.56641,-0.375 1.0625,-0.85156 1.4062,-1.457 0.0117,-0.0234 0.0391,-0.0352 0.0508,-0.0586 l 38.137,-70.484 z m -106.88,-10.648 v -6.6719 c 3.6445,-2.0781 20.668,-8.5469 83.223,-1.0977 0.48828,3.4062 1.5508,6.2695 3.0039,8.582 z m 146.54,-91.062 -49.199,90.926 c -2.3672,-1.3945 -5.3359,-4.4453 -5.6367,-10.621 l 48.523,-90.398 z m -90.684,-11.609 c 0.99609,-1.0898 6.7539,-5.1055 37.297,-5.1055 15.359,0 31.172,1.0312 39.785,1.7031 l -48.129,89.672 c -43.043,-5.168 -66.219,-4.0781 -78.738,-1.4336 z m -86.316,6.4648 c 27.961,-6.6133 49.441,-9.9688 63.859,-9.9688 7.6992,0 11.516,0.97266 13.348,1.7344 l -52.793,89.957 c -18.008,-7.707 -61.086,-4.2305 -81.152,-2.0469 z m -63.461,89.285 c 27.488,-3.5 71.855,-6.0391 85.172,0.75391 v 6.0898 l -89.039,-0.83594 z m -24.418,16.816 c 0.0742,0.36719 0.0391,0.74609 0.21484,1.0977 0.72266,1.4414 2.1836,2.3633 3.7852,2.4023 l 211.03,5.7344 -109.99,41.742 -127.8,-43.691 z m 98.426,57.961 c -3.9336,7.1094 -8.9609,20.789 -1.6992,35.758 l -94.539,-36.762 h -0.0117 l -34.48,-13.41 v -30.273 z m -82.191,-171.06 5.7812,16.918 -26.57,-17.262 c 0.22656,-0.77734 0.31641,-1.5859 0.0859,-2.3789 l -3.6289,-12.828 z m -25.363,7.1172 30.699,19.949 -132.5,191.37 -26.738,-15.812 z m -130.03,159.21 122.08,-181.49 3.6445,12.891 -130.04,197.77 z"
       id="path70"
       inkscape:connector-curvature="0" />
  </g>
</svg>
